<svg width="311" height="311" viewBox="0 0 311 311" fill="none" xmlns="http://www.w3.org/2000/svg">
<path d="M22.5475 221.793C22.3609 222.141 22.081 222.881 22.081 224.026C22.081 225.17 22.3609 225.917 22.5475 226.259H285.33C285.517 225.91 285.797 225.17 285.797 224.026C285.797 222.881 285.517 222.135 285.33 221.793H22.5475Z" fill="#B6DCE1"/>
<path d="M146.17 218.776C130.57 203.263 109.516 195.246 90.4326 197.721C64.1966 201.149 47.216 211.586 36.9841 218.776H146.17Z" fill="#F0F7F8"/>
<path d="M270.887 218.776C260.655 211.586 243.681 201.149 217.439 197.721C198.368 195.246 177.314 203.263 161.708 218.776H270.887Z" fill="#F0F7F8"/>
<path d="M157.509 207.101L157.851 207.194C160.352 203.562 163.225 199.998 166.422 196.564L150.536 192.279C151.575 196.857 152.266 201.379 152.601 205.776L157.509 207.101Z" fill="#FFECD1"/>
<path opacity="0.4" d="M175.64 155.096C188.419 155.096 198.779 144.736 198.779 131.957C198.779 119.178 188.419 108.819 175.64 108.819C162.861 108.819 152.502 119.178 152.502 131.957C152.502 144.736 162.861 155.096 175.64 155.096Z" fill="#DCE3EB"/>
<path d="M187.583 86.5575C169.458 81.6624 156.781 87.6211 149.336 93.4804C140.012 100.82 134.644 111.015 132.729 118.112C128.58 133.481 131.024 143.383 136.989 156.29L137.481 157.347C141.542 166.111 146.574 176.971 149.709 188.939L168.805 194.089C177.544 185.319 187.365 178.458 195.289 172.922L196.216 172.275C207.866 164.127 214.969 156.8 219.118 141.43C222.141 130.222 222.844 96.0803 187.583 86.57V86.5575ZM175.634 155.096C162.877 155.096 152.496 144.715 152.496 131.957C152.496 119.2 162.877 108.819 175.634 108.819C188.391 108.819 198.773 119.2 198.773 131.957C198.773 144.715 188.391 155.096 175.634 155.096Z" fill="url(#paint0_radial_2_48)"/>
<path d="M285.834 218.776H276.068C266.172 211.604 248.01 198.673 217.831 194.736C197.006 192.018 173.961 201.236 157.534 218.776H150.35C133.929 201.236 110.896 192.024 90.047 194.736C59.8737 198.673 41.7113 211.611 31.8153 218.776H22.0499C20.383 218.776 19.0768 221.084 19.0768 224.026C19.0768 226.968 20.383 229.275 22.0499 229.275H285.834C287.501 229.275 288.807 226.968 288.807 224.026C288.807 221.084 287.501 218.776 285.834 218.776ZM217.439 197.721C243.681 201.149 260.655 211.586 270.887 218.776H161.708C177.314 203.263 198.368 195.246 217.439 197.721ZM90.4326 197.721C109.516 195.246 130.57 203.27 146.17 218.776H36.9841C47.216 211.586 64.1904 201.149 90.4326 197.721ZM285.33 226.259H22.5475C22.3609 225.91 22.081 225.17 22.081 224.026C22.081 222.881 22.3609 222.135 22.5475 221.793H285.33C285.517 222.141 285.797 222.881 285.797 224.026C285.797 225.17 285.517 225.917 285.33 226.259ZM188.373 83.6466C169.041 78.428 155.463 84.8284 147.476 91.1106C137.568 98.9042 131.864 109.764 129.824 117.322C125.457 133.494 128.144 144.323 134.265 157.553L134.756 158.616C139.073 167.94 143.968 178.508 147.022 190.537L147.035 190.599C148.453 196.197 149.622 204.974 149.622 204.974C149.622 204.974 150.443 209.869 151.09 211.567C151.482 212.6 152.29 213.346 153.304 213.62C153.578 213.694 153.858 213.732 154.138 213.732C154.884 213.732 155.631 213.464 156.253 212.96C157.658 211.816 160.831 207.997 160.831 207.997C160.831 207.997 166.285 200.962 170.341 196.826C179.036 187.956 188.59 181.276 197.018 175.392L197.951 174.738C209.9 166.385 217.669 158.386 222.035 142.208C226.843 124.375 221.961 92.7153 188.373 83.6466ZM157.851 207.188L157.509 207.095L152.601 205.77C152.272 201.373 151.581 196.851 150.536 192.273L166.422 196.558C163.225 199.992 160.352 203.55 157.851 207.188ZM219.124 141.418C214.976 156.788 207.879 164.115 196.222 172.263L195.296 172.91C187.371 178.452 177.55 185.312 168.811 194.076L149.715 188.926C146.574 176.965 141.542 166.105 137.487 157.335L136.996 156.278C131.031 143.371 128.586 133.469 132.735 118.099C134.651 111.002 140.012 100.808 149.342 93.4679C156.788 87.6087 169.464 81.6499 187.589 86.5451C222.85 96.0617 222.154 130.197 219.124 141.405V141.418ZM175.64 105.597C161.104 105.597 149.286 117.421 149.286 131.951C149.286 146.481 161.11 158.305 175.64 158.305C190.17 158.305 201.994 146.481 201.994 131.951C201.994 117.421 190.17 105.597 175.64 105.597ZM175.64 155.096C162.883 155.096 152.502 144.715 152.502 131.957C152.502 119.2 162.883 108.819 175.64 108.819C188.398 108.819 198.779 119.2 198.779 131.957C198.779 144.715 188.398 155.096 175.64 155.096Z" fill="#2D2A26"/>
<path opacity="0.8" d="M192.434 126.589C191.962 126.527 191.576 126.142 191.532 125.644C191.253 122.428 188.385 118.236 184.566 117.11C184.013 116.948 183.701 116.37 183.863 115.816C184.025 115.263 184.597 114.952 185.157 115.114C189.94 116.525 193.268 121.582 193.604 125.464C193.654 126.036 193.231 126.54 192.658 126.589C192.584 126.596 192.509 126.589 192.434 126.589Z" fill="#D3EAED"/>
<defs>
<radialGradient id="paint0_radial_2_48" cx="0" cy="0" r="1" gradientUnits="userSpaceOnUse" gradientTransform="translate(175.553 139.415) scale(50.015 50.015)">
<stop stop-color="#FFA400"/>
<stop offset="1" stop-color="#FFA400"/>
</radialGradient>
</defs>
</svg>
